HIERARCHY
ROOT hip
{
	OFFSET 0.000000 0.000000 0.000000 
	CHANNELS 6 Xposition Yposition Zposition Xrotation Zrotation Yrotation
	JOINT abdomen
	{
		OFFSET 0.000000 3.402643 0.000000 
		CHANNELS 3 Xrotation Zrotation Yrotation
		JOINT chest
		{
			OFFSET 0.000000 8.438565 -0.680529 
			CHANNELS 3 Xrotation Zrotation Yrotation
			JOINT neck
			{
				OFFSET 0.000000 10.207942 -0.272212 
				CHANNELS 3 Xrotation Zrotation Yrotation
				JOINT head
				{
					OFFSET 0.000000 3.130431 0.000000 
					CHANNELS 3 Xrotation Zrotation Yrotation
					End Site
					{
						OFFSET 0.000000 3.130435 0.000000 
					}
				}
			}
			JOINT lCollar
			{
				OFFSET 3.470700 6.669187 -0.816635 
				CHANNELS 3 Yrotation Zrotation Xrotation
				JOINT lShldr
				{
					OFFSET 3.198488 0.000000 0.000000 
					CHANNELS 3 Zrotation Yrotation Xrotation
					JOINT lForeArm
					{
						OFFSET 10.139888 0.000000 0.000000 
						CHANNELS 3 Yrotation Zrotation Xrotation
						JOINT lHand
						{
							OFFSET 8.370511 0.000000 0.000000 
							CHANNELS 3 Zrotation Yrotation Xrotation
							End Site
							{
								OFFSET 4.083176 0.000000 0.000000 
							}
						}
					}
				}
			}
			JOINT rCollar
			{
				OFFSET -3.470700 6.669187 -0.816635 
				CHANNELS 3 Yrotation Zrotation Xrotation
				JOINT rShldr
				{
					OFFSET -3.198488 0.000000 0.000000 
					CHANNELS 3 Zrotation Yrotation Xrotation
					JOINT rForeArm
					{
						OFFSET -10.139888 0.000000 0.000000 
						CHANNELS 3 Yrotation Zrotation Xrotation
						JOINT rHand
						{
							OFFSET -8.370511 0.000000 0.000000 
							CHANNELS 3 Zrotation Yrotation Xrotation
							End Site
							{
								OFFSET -4.083176 0.000000 0.000000 
							}
						}
					}
				}
			}
		}
	}
	JOINT lThigh
	{
		OFFSET 5.308129 -1.633274 1.361059 
		CHANNELS 3 Xrotation Zrotation Yrotation
		JOINT lShin
		{
			OFFSET -2.041588 -20.007561 0.000000 
			CHANNELS 3 Xrotation Zrotation Yrotation
			JOINT lFoot
			{
				OFFSET 0.000000 -19.190928 -1.224953 
				CHANNELS 3 Xrotation Yrotation Zrotation
				End Site
				{
					OFFSET 0.000000 -2.449906 4.627600 
				}
			}
		}
	}
	JOINT rThigh
	{
		OFFSET -5.308129 -1.633274 1.361059 
		CHANNELS 3 Xrotation Zrotation Yrotation
		JOINT rShin
		{
			OFFSET 2.041588 -20.007561 0.000000 
			CHANNELS 3 Xrotation Zrotation Yrotation
			JOINT rFoot
			{
				OFFSET 0.000000 -19.190928 -1.224953 
				CHANNELS 3 Xrotation Yrotation Zrotation
				End Site
				{
					OFFSET 0.000000 -2.449906 4.627600 
				}
			}
		}
	}
}
MOTION
Frames: 20
Frame Time: 0.011111
31.735195 51.977062 -46.409927 3.056641 0.859375 -32.050632 27.929689 -3.828125 -1.104167 -23.017576 7.998046 0.431046 -9.960938 -9.150390 -2.675781 42.431637 20.595701 0.859376 6.650391 -7.392578 2.813757 -71.337891 -39.677738 13.587516 -48.046875 7.216797 7.362055 8.515625 12.646484 -61.181637 -7.246094 1.298828 2.988281 72.060547 32.177734 7.753906 56.796879 -8.945313 10.997612 -8.535156 -12.646484 57.822266 -11.604186 5.513933 1.322578 37.216194 -4.884343 -5.755467 -28.156160 0.681022 -1.534200 -18.378120 -14.442785 2.736862 37.558346 4.808269 5.790625 -21.858849 -1.014590 2.168368 
31.788719 51.973637 -46.398106 2.919922 0.859368 -32.548908 28.115236 -3.837891 -1.367841 -22.880857 7.998046 0.382218 -8.642578 -9.218750 -2.656250 40.478516 20.771486 0.947266 6.650391 -7.392578 2.813757 -70.986328 -40.126953 14.017142 -47.753906 7.138672 7.254645 8.515625 12.646484 -60.585938 -7.246094 1.298828 2.988281 72.050781 31.894531 8.071568 57.089844 -8.984375 11.132812 -8.535156 -12.646484 58.857422 -11.381837 5.417399 1.516769 37.177925 -4.864861 -5.775822 -28.302576 0.898563 -1.393732 -18.424925 -14.460986 3.036057 37.558708 4.798678 5.807786 -21.800028 -0.869007 2.224420 
31.840994 51.966171 -46.392197 2.929688 0.830078 -33.027203 28.144531 -3.720703 -1.562500 -22.802736 7.978516 0.322266 -9.257812 -8.916017 -2.501514 41.542973 20.195314 1.145949 6.650391 -7.392578 2.813757 -70.830078 -40.361324 13.916017 -47.734379 7.138672 7.255858 8.515625 12.646484 -60.332031 -7.246094 1.298828 2.988281 72.011726 31.591797 8.003163 57.089844 -8.984375 11.132812 -8.535156 -12.646484 59.121094 -11.363484 5.486367 1.797586 37.178577 -4.864888 -5.756463 -28.341063 0.961648 -1.395681 -18.568209 -14.341732 3.355886 37.509418 4.808395 5.776704 -21.614145 -0.868674 2.247237 
31.898558 51.968971 -46.366058 2.988281 0.742188 -33.476501 28.193359 -3.457031 -1.768167 -22.949219 7.988281 0.224609 -9.042968 -8.818359 -2.364778 41.660156 19.863281 1.367187 6.650391 -7.392578 2.813757 -70.781250 -40.292965 13.476563 -47.783199 7.148438 7.264411 8.515625 12.646484 -60.566402 -7.246094 1.298828 2.988281 71.894531 31.142576 7.841797 57.050781 -8.984375 11.113279 -8.535156 -12.646484 59.062504 -11.356680 5.605176 2.037984 37.178261 -4.870812 -5.748640 -28.369293 1.086070 -1.320063 -18.649162 -14.187387 3.666965 37.429268 4.817988 5.782557 -21.369535 -0.836108 2.278386 
31.955507 51.975193 -46.342407 3.037110 0.673828 -33.984261 28.281248 -3.281250 -1.757813 -23.076172 8.027344 0.196676 -8.779297 -8.828125 -2.294922 41.611328 19.765623 1.536506 6.650391 -7.392578 2.813757 -70.800781 -40.390621 13.310547 -47.724609 7.138672 7.244879 8.515625 12.646484 -60.937500 -7.246094 1.298828 2.988281 71.738281 30.703127 7.592879 57.109375 -8.984375 11.134337 -8.535156 -12.646484 59.082031 -11.337142 5.634504 2.085418 37.197567 -4.880453 -5.734002 -28.539543 1.419990 -1.154314 -18.747734 -14.021995 3.968127 37.341274 4.818056 5.755506 -21.212162 -0.747457 2.332380 
32.005913 51.977993 -46.317513 2.958984 0.859375 -34.550785 28.261717 -3.525390 -1.835938 -22.900391 8.027344 0.224609 -8.964845 -8.652344 -2.207031 41.855469 19.619141 1.660156 6.650391 -7.392578 2.813757 -70.664055 -40.830078 13.206508 -47.587891 7.099609 7.187500 8.515625 12.646484 -61.308590 -7.246094 1.298828 2.988281 71.835938 30.605467 7.036222 57.041012 -8.974609 11.113281 -8.535156 -12.646484 58.886723 -11.250007 5.312666 2.142750 37.187374 -4.877599 -5.750775 -28.832298 1.772947 -0.902499 -18.986691 -14.223936 4.258355 37.252304 4.823991 5.739989 -21.023535 -0.588549 2.428761 
32.044189 51.980171 -46.294483 2.919922 0.976554 -35.009834 28.212891 -3.623047 -2.060547 -22.646482 8.027345 0.196676 -9.394530 -8.564453 -2.101063 42.646484 19.511717 1.868497 6.650391 -7.392578 2.813757 -70.488281 -41.210938 13.173828 -47.519527 7.080078 7.157000 8.515625 12.646484 -61.425777 -7.246094 1.298828 2.988281 71.894531 30.439455 6.708985 57.060543 -8.974609 11.113281 -8.535156 -12.646484 58.925785 -11.164104 5.191436 2.389393 37.155956 -4.900377 -5.736101 -28.955585 1.874936 -0.828471 -19.171936 -14.311698 4.513227 37.182312 4.833619 5.737000 -20.864069 -0.444172 2.481933 
32.083397 51.980171 -46.287949 3.017578 0.947266 -35.370930 28.173828 -3.427734 -2.217381 -22.568359 8.076172 0.138091 -9.794922 -8.916017 -1.983935 43.867188 19.736326 2.236328 6.650391 -7.392578 2.813757 -70.439453 -41.455078 13.173828 -47.460938 7.060547 7.128907 8.515625 12.646484 -61.308590 -7.246094 1.298828 2.988281 71.728516 30.029295 6.655278 57.216797 -8.994142 11.183167 -8.535156 -12.646484 59.404301 -11.215322 5.309813 2.719332 37.127151 -4.890499 -5.740117 -28.945379 1.887973 -0.831017 -19.304148 -14.148849 4.824442 37.163658 4.817851 5.749722 -20.816133 -0.491148 2.475728 
32.131008 51.978306 -46.277683 2.978516 1.093750 -35.781254 28.193359 -3.505860 -2.539660 -22.392576 8.085938 0.079498 -9.853516 -9.345702 -1.904297 44.189453 20.253904 2.548827 6.650391 -7.392578 2.813757 -70.341797 -41.904301 12.845040 -47.324219 7.021485 7.089843 8.515625 12.646484 -61.230469 -7.246094 1.298828 2.988281 71.826172 30.029295 6.333013 57.128906 -8.984375 11.144102 -8.535156 -12.646484 59.580082 -11.196332 5.114666 2.862414 37.096909 -4.884700 -5.774458 -29.061066 2.148635 -0.656394 -19.563244 -14.234184 5.182019 37.133701 4.827601 5.730827 -20.747864 -0.477598 2.461246 
32.180481 51.976128 -46.261200 2.949219 1.201172 -36.328125 28.261719 -3.593750 -2.852174 -22.119143 8.076173 0.039063 -10.068359 -9.218750 -1.689453 44.130859 20.302736 3.001435 6.650391 -7.392578 2.813757 -70.146484 -42.392578 12.402344 -47.285156 7.021484 7.080078 8.515625 12.646484 -61.347652 -7.246094 1.298828 2.988281 72.041016 30.253906 5.952187 56.904297 -8.955078 11.046443 -8.535156 -12.646484 59.375000 -11.177412 4.968687 3.081955 37.097244 -4.890632 -5.747262 -29.186983 2.363570 -0.524485 -19.822939 -14.296143 5.505527 37.073879 4.837259 5.719012 -20.604799 -0.278242 2.558226 
32.232136 51.972084 -46.236614 2.988281 1.171875 -36.845703 28.320313 -3.486328 -2.968781 -21.865234 8.046876 0.019531 -10.087891 -9.160156 -1.534758 43.837891 20.253908 3.245568 6.650391 -7.392578 2.813757 -69.980469 -42.841797 12.236330 -47.324219 7.031250 7.080078 8.515625 12.646484 -61.376953 -7.246094 1.298828 2.988281 71.982422 30.214844 5.917969 56.796879 -8.945313 10.997612 -8.535156 -12.646484 59.375000 -11.131408 5.058103 3.459303 37.097240 -4.890644 -5.747268 -29.303461 2.374880 -0.490650 -19.987520 -14.187939 5.844886 37.033413 4.846944 5.718597 -20.412939 -0.136100 2.642264 
32.281300 51.964615 -46.214516 2.949219 1.230469 -37.197266 28.408201 -3.476562 -3.125000 -21.884766 8.095703 -0.029297 -9.873047 -9.238281 -1.455078 43.515625 20.244141 3.388672 6.650391 -7.392578 2.813757 -69.902344 -43.095703 12.210124 -47.363285 7.041016 7.109375 8.515625 12.646484 -61.318359 -7.246094 1.298828 2.988281 71.787109 29.824219 5.971655 56.787109 -8.945313 10.996093 -8.535156 -12.646484 59.560547 -11.076549 4.995961 3.762375 37.097233 -4.884726 -5.764784 -29.370014 2.411949 -0.474211 -20.125370 -14.247114 6.045204 37.002365 4.857340 5.729103 -20.243073 -0.048310 2.670932 
32.331711 51.963062 -46.203625 2.978516 1.406250 -37.577885 28.496094 -3.574219 -3.467406 -22.324219 8.339844 -0.156250 -9.580078 -9.277344 -1.349231 43.427734 20.048828 3.574219 6.650391 -7.392578 2.813757 -69.951172 -42.705078 12.044157 -47.499996 7.070312 7.147234 8.515625 12.646484 -61.347652 -7.246094 1.298828 2.988281 71.542969 29.248049 5.800781 56.669922 -8.925781 10.948779 -8.535156 -12.646484 59.560547 -11.136759 4.850501 3.935024 37.087715 -4.890641 -5.736721 -29.427464 2.604530 -0.381929 -20.426697 -14.344026 6.229970 36.947571 4.811934 5.729076 -20.068340 0.101871 2.758807 
32.386166 51.962746 -46.169083 2.958984 1.562500 -38.046745 28.535156 -3.671875 -3.750000 -22.617186 8.505860 -0.242696 -9.335938 -8.984374 -1.153869 43.408203 19.521482 3.857421 6.650391 -7.392578 2.813757 -70.087891 -42.255859 12.034449 -47.753906 7.138672 7.244879 8.515625 12.646484 -61.093746 -7.246094 1.298828 2.988281 71.298828 28.681641 5.785939 56.572269 -8.916017 10.899951 -8.535156 -12.646484 59.521484 -11.127703 4.636227 4.010214 37.078117 -4.900250 -5.700106 -29.604939 2.873975 -0.196297 -20.706030 -14.459355 6.544481 36.906326 4.852810 5.660857 -19.831553 0.303051 2.830703 
32.435951 51.963371 -46.122414 2.949219 1.591797 -38.476563 28.535158 -3.544922 -3.867791 -22.646484 8.535157 -0.281754 -9.140625 -8.916017 -1.015625 43.330078 19.248045 4.062501 6.650391 -7.392578 2.813757 -70.185547 -42.304684 11.953123 -47.841797 7.167968 7.294921 8.515625 12.646484 -60.820309 -7.246094 1.298828 2.988281 70.947266 28.203127 5.917968 56.533203 -8.916017 10.888671 -8.535156 -12.646484 59.384766 -11.067878 4.508635 3.983116 37.058167 -4.890566 -5.734112 -29.809708 3.144579 -0.019139 -20.847931 -14.491265 6.721758 36.845387 4.857242 5.695148 -19.686384 0.433550 2.861273 
32.470798 51.970837 -46.097206 3.066406 1.484375 -38.974609 28.613281 -3.359375 -3.955079 -22.529297 8.593750 -0.322266 -9.316407 -9.082031 -0.917969 43.457031 19.345703 4.267577 6.650391 -7.392578 2.813757 -70.195313 -42.724609 11.435547 -47.841797 7.167968 7.294921 8.515625 12.646484 -61.142574 -7.246094 1.298828 2.988281 70.751953 27.988281 6.293646 56.611328 -8.925781 10.919483 -8.535156 -12.646484 60.234371 -11.073246 4.628579 4.058091 37.048641 -4.890555 -5.723562 -29.991207 3.423947 0.188329 -20.942280 -14.226017 7.007306 36.766548 4.857277 5.688304 -19.612198 0.508461 2.893306 
32.510628 51.973015 -46.085381 3.183594 1.455078 -39.423584 28.759766 -3.310547 -4.082031 -22.333984 8.593750 -0.350103 -9.970702 -8.564453 -0.860829 43.535156 18.798828 4.130860 6.650391 -7.392578 2.813757 -70.009766 -43.330074 11.064453 -47.783199 7.148438 7.274175 8.515625 12.646484 -61.474606 -7.246094 1.298828 2.988281 70.986328 28.193357 5.654296 56.357418 -8.886719 10.820313 -8.535156 -12.646484 59.687500 -11.129243 4.773455 4.367548 37.048637 -4.884638 -5.741081 -30.022564 3.619341 0.295451 -21.097391 -14.020502 7.273126 36.686646 4.866868 5.684395 -19.461864 0.538260 2.930799 
32.563843 51.972706 -46.068890 3.183594 1.562500 -39.677738 28.886717 -3.359375 -4.316407 -22.246094 8.583984 -0.389167 -10.947266 -7.753906 -0.810547 43.916016 17.939455 3.870196 6.650391 -7.392578 2.813757 -69.824219 -43.906250 11.028385 -47.656250 7.119141 7.216797 8.515625 12.646484 -61.416016 -7.246094 1.298828 2.988281 71.142578 28.203123 5.151099 56.171875 -8.857421 10.733927 -8.535156 -12.646484 59.189457 -11.179802 4.667123 4.548479 37.038788 -4.890538 -5.722695 -30.006886 3.790886 0.360144 -21.261974 -14.137086 7.326291 36.617901 4.882420 5.625058 -19.276688 0.647877 2.969878 
32.605537 51.973637 -46.046177 3.144531 1.650391 -39.960655 28.984379 -3.408203 -4.443939 -22.294920 8.574219 -0.418466 -9.746094 -7.968750 -0.714244 42.304688 18.359375 4.221826 6.650391 -7.392578 2.813757 -69.677734 -44.296879 11.142578 -47.499996 7.070312 7.147234 8.515625 12.646484 -61.416016 -7.246094 1.298828 2.988281 71.015625 27.792971 5.277992 56.201172 -8.867188 10.742188 -8.535156 -12.646484 59.716793 -11.140157 4.520232 4.620419 37.029255 -4.884608 -5.729666 -30.114368 3.982905 0.491641 -21.402552 -14.256016 7.387593 36.547924 4.876558 5.665676 -19.118534 0.878244 3.057221 
32.644432 51.973331 -46.032795 3.232422 1.689453 -40.253906 29.003906 -3.359375 -4.541588 -22.402344 8.613282 -0.468750 -9.365235 -7.958984 -0.615234 41.923828 18.369141 4.433594 6.650391 -7.392578 2.813757 -69.589844 -44.619141 11.152343 -47.392578 7.050781 7.109375 8.515625 12.646484 -61.455078 -7.246094 1.298828 2.988281 70.947266 27.451172 5.107422 56.113281 -8.857422 10.704629 -8.535156 -12.646484 60.195313 -11.229811 4.540926 4.700735 37.006413 -4.909982 -5.745522 -30.207891 4.116340 0.580884 -21.569294 -14.197805 7.486201 36.519455 4.866714 5.660087 -19.012018 1.051119 3.133738 
